<?xml version="1.0" encoding="UTF-8"?>
<svg viewBox="0 0 496.06299 496.06299" xmlns="http://www.w3.org/2000/svg">
 <defs>
  <filter id="e">
   <feGaussianBlur stdDeviation="2.3911"/>
  </filter>
  <filter id="d">
   <feGaussianBlur stdDeviation=".5536"/>
  </filter>
  <filter id="c">
   <feGaussianBlur stdDeviation="1.1997"/>
  </filter>
  <filter id="b">
   <feGaussianBlur stdDeviation="1.9531"/>
  </filter>
  <linearGradient id="a" x1="520.02" x2="248.03" y1="531.36" y2="804.33" gradientUnits="userSpaceOnUse">
   <stop stop-color="#fff" offset="0"/>
   <stop stop-color="#fff" stop-opacity="0" offset="1"/>
  </linearGradient>
 </defs>
 <g transform="translate(0 -556.3)">
  <path transform="matrix(2.8462 0 0 2.9239 -572.56 119.45)" d="m344.52 235.04c0 30.168-25.124 54.624-56.115 54.624s-56.115-24.456-56.115-54.624 25.124-54.624 56.115-54.624 56.115 24.456 56.115 54.624z" fill="#4d4d4d" filter="url(#d)"/>
  <path transform="matrix(2.8325 0 0 2.9099 -568.87 123.39)" d="m344.52 235.04c0 30.168-25.124 54.624-56.115 54.624s-56.115-24.456-56.115-54.624 25.124-54.624 56.115-54.624 56.115 24.456 56.115 54.624z" fill="#f7f7f7"/>
  <path d="m89.651 807.89c0.0037-0.47005 0.01534-0.9347 0.02306-1.4057 1.4398-87.749 73.471-157.56 160.9-155.95s157.13 74.05 155.69 161.8c-8e-3 0.47095-0.0114 0.93576-0.0231 1.4057 0.66294-87.104-68.757-158.79-155.71-160.39s-158.68 67.464-160.88 154.54z" fill="#e6e6e6" filter="url(#c)" stroke="#f1f1f1"/>
  <path d="m89.094 804.22c-0.0041 0.47018 0 0.9351 0 1.4062 0 87.785 71.152 158.94 158.94 158.94s158.94-71.152 158.94-158.94c0-0.47115 4e-3 -0.93607 0-1.4062-0.76911 87.125-71.63 157.53-158.94 157.53s-158.17-70.406-158.94-157.53z" filter="url(#e)" opacity=".8"/>
  <path d="m167.41 706.68c26.679 15.042 46.52 40.608 53.969 71.098-30.29-7.2969-55.831-26.818-71.002-53.108v159.23c15.201-26.342 40.824-45.845 71.193-53.108-7.2584 30.379-26.855 55.989-53.204 71.193h159.23c-26.319-15.188-45.83-40.764-53.108-71.098 30.514 7.4378 56.142 27.274 71.193 53.969v-161.14c-15.022 26.643-40.567 46.497-71.002 53.969 7.4681-30.444 27.224-55.977 53.873-71.002h-161.14z" fill="#d81a1a"/>
  <path d="m166.35 705.74c26.679 15.042 46.52 40.604 53.969 71.094-2.6446-0.63709-5.244-1.3364-7.8125-2.1562 3.2502 1.1094 6.5616 2.0617 9.9375 2.875-7.4486-30.489-27.29-56.052-53.969-71.094h157.78l1.25-0.71875h-161.16zm178.28 17.031c-14.614 25.92-39.184 45.425-68.531 53.344-0.11571 0.44772-0.23339 0.89387-0.34375 1.3438 29.046-7.1311 53.633-25.551 68.875-50.375v-4.3125zm-195.31 0.96875v159.22c0.68425-1.1857 1.399-2.3424 2.125-3.5v-152.22c-0.7244-1.1554-1.4421-2.3166-2.125-3.5zm73.312 106.81c-0.83256 0.1991-1.6434 0.4076-2.4688 0.625-7.5038 29.802-26.876 54.89-52.844 69.875h3.3125c25.743-15.284 44.852-40.585 52-70.5zm62 2.75c25.553 9.1444 46.83 27.266 60 50.625v-2.9063c-13.66-22.24-34.847-39.284-60-47.719z" fill="#4d4d4d" filter="url(#b)"/>
  <path d="m247.35 652.43c-77.976 0-142.38 58.093-152.32 133.35 23.087-26.861 57.33-43.867 95.528-43.867 69.527 0 125.89 56.363 125.89 125.89 0 34.458-13.855 65.696-36.284 88.428 69.104-15.029 120.88-76.543 120.88-150.15 0-84.867-68.818-153.65-153.68-153.65z" fill="url(#a)"/>
 </g>
</svg>
